<mxfile host="app.diagrams.net" modified="2022-10-08T14:06:03.440Z" agent="5.0 (Windows NT 10.0; Win64; x64) AppleWebKit/537.36 (KHTML, like Gecko) Chrome/105.0.0.0 Safari/537.36 Edg/105.0.1343.53" etag="EgxLcOhE0OtRQi2DXPZQ" version="20.4.0" type="github">
  <diagram id="zIMyVtwHqBge--4s_Ef6" name="第 1 页">
    <mxGraphModel dx="1562" dy="1014" grid="1" gridSize="10" guides="1" tooltips="1" connect="1" arrows="1" fold="1" page="1" pageScale="1" pageWidth="827" pageHeight="1169" math="0" shadow="0">
      <root>
        <mxCell id="0" />
        <mxCell id="1" parent="0" />
        <mxCell id="nHlsSwDTNqi9xsX-Co70-1" value="" style="rounded=0;whiteSpace=wrap;html=1;shadow=1;sketch=0;glass=1;" vertex="1" parent="1">
          <mxGeometry x="90" y="100" width="950" height="710" as="geometry" />
        </mxCell>
        <mxCell id="nHlsSwDTNqi9xsX-Co70-2" value="" style="rounded=0;whiteSpace=wrap;html=1;fillColor=#dae8fc;strokeColor=#6c8ebf;shadow=1;" vertex="1" parent="1">
          <mxGeometry x="160" y="170" width="810" height="160" as="geometry" />
        </mxCell>
        <mxCell id="nHlsSwDTNqi9xsX-Co70-4" value="" style="rounded=0;whiteSpace=wrap;html=1;fillColor=#dae8fc;strokeColor=#6c8ebf;shadow=1;" vertex="1" parent="1">
          <mxGeometry x="160" y="360" width="810" height="160" as="geometry" />
        </mxCell>
        <mxCell id="nHlsSwDTNqi9xsX-Co70-5" value="" style="rounded=0;whiteSpace=wrap;html=1;fillColor=#dae8fc;strokeColor=#6c8ebf;shadow=1;" vertex="1" parent="1">
          <mxGeometry x="160" y="550" width="810" height="160" as="geometry" />
        </mxCell>
        <mxCell id="nHlsSwDTNqi9xsX-Co70-7" value="&lt;b&gt;&lt;font style=&quot;font-size: 18px;&quot;&gt;SoftWare&lt;/font&gt;&lt;/b&gt;" style="text;html=1;strokeColor=none;fillColor=none;align=center;verticalAlign=middle;whiteSpace=wrap;rounded=0;rotation=90;" vertex="1" parent="1">
          <mxGeometry x="90" y="240" width="60" height="30" as="geometry" />
        </mxCell>
        <mxCell id="nHlsSwDTNqi9xsX-Co70-8" value="&lt;b&gt;&lt;font style=&quot;font-size: 18px;&quot;&gt;HardWare&lt;/font&gt;&lt;/b&gt;" style="text;html=1;strokeColor=none;fillColor=none;align=center;verticalAlign=middle;whiteSpace=wrap;rounded=0;rotation=90;" vertex="1" parent="1">
          <mxGeometry x="90" y="615" width="60" height="30" as="geometry" />
        </mxCell>
        <mxCell id="nHlsSwDTNqi9xsX-Co70-9" value="" style="rounded=0;whiteSpace=wrap;html=1;fontSize=18;fillColor=#d5e8d4;strokeColor=#82b366;gradientColor=#97d077;shadow=1;" vertex="1" parent="1">
          <mxGeometry x="190" y="190" width="80" height="30" as="geometry" />
        </mxCell>
        <mxCell id="nHlsSwDTNqi9xsX-Co70-12" value="" style="rounded=0;whiteSpace=wrap;html=1;fontSize=18;fillColor=#fff2cc;strokeColor=#d6b656;gradientColor=#ffd966;shadow=1;" vertex="1" parent="1">
          <mxGeometry x="190" y="235" width="80" height="30" as="geometry" />
        </mxCell>
        <mxCell id="nHlsSwDTNqi9xsX-Co70-13" value="" style="rounded=0;whiteSpace=wrap;html=1;fontSize=18;fillColor=#f5f5f5;strokeColor=#666666;gradientColor=#b3b3b3;shadow=1;" vertex="1" parent="1">
          <mxGeometry x="190" y="280" width="80" height="30" as="geometry" />
        </mxCell>
        <mxCell id="nHlsSwDTNqi9xsX-Co70-15" value="&lt;b&gt;&lt;font style=&quot;font-size: 24px;&quot;&gt;BlueWhale&lt;/font&gt;&lt;/b&gt;" style="text;html=1;strokeColor=none;fillColor=none;align=center;verticalAlign=middle;whiteSpace=wrap;rounded=0;rotation=0;" vertex="1" parent="1">
          <mxGeometry x="495" y="120" width="140" height="30" as="geometry" />
        </mxCell>
        <mxCell id="nHlsSwDTNqi9xsX-Co70-16" value="&lt;font style=&quot;font-size: 12px;&quot;&gt;Done&lt;/font&gt;" style="rounded=0;whiteSpace=wrap;html=1;fontSize=18;fillColor=#d5e8d4;strokeColor=#82b366;gradientColor=#97d077;shadow=1;" vertex="1" parent="1">
          <mxGeometry x="160" y="750" width="40" height="20" as="geometry" />
        </mxCell>
        <mxCell id="nHlsSwDTNqi9xsX-Co70-17" value="&lt;font style=&quot;font-size: 12px;&quot;&gt;Doing&lt;/font&gt;" style="rounded=0;whiteSpace=wrap;html=1;fontSize=18;fillColor=#fff2cc;strokeColor=#d6b656;gradientColor=#ffd966;shadow=1;" vertex="1" parent="1">
          <mxGeometry x="220" y="750" width="40" height="20" as="geometry" />
        </mxCell>
        <mxCell id="nHlsSwDTNqi9xsX-Co70-18" value="&lt;span style=&quot;font-size: 12px;&quot;&gt;for future&lt;/span&gt;" style="rounded=0;whiteSpace=wrap;html=1;fontSize=18;fillColor=#f5f5f5;strokeColor=#666666;gradientColor=#b3b3b3;shadow=1;" vertex="1" parent="1">
          <mxGeometry x="280" y="750" width="80" height="20" as="geometry" />
        </mxCell>
      </root>
    </mxGraphModel>
  </diagram>
</mxfile>
